# Blender v2.78 (sub 0) OBJ File: 'robot_dog.blend'
# www.blender.org
mtllib robot_dog_belt.mtl
o Belt_Cube.002
v -0.655667 0.978800 1.021200
v 0.388667 0.978800 1.021200
v 0.388667 3.021200 1.021200
v -0.655667 3.021200 1.021200
v -0.620856 1.000000 1.000000
v 0.353855 1.000000 1.000000
v 0.353855 3.000000 1.000000
v -0.620856 3.000000 1.000000
v -0.655667 0.876680 1.123320
v 0.388667 0.876680 1.123320
v 0.388667 3.123320 1.123320
v -0.655667 3.123320 1.123320
v -0.619115 0.842980 1.157020
v 0.352115 0.842980 1.157020
v 0.352115 3.157020 1.157020
v -0.619115 3.157020 1.157020
v -0.133500 0.842980 1.157020
v -0.133500 3.157020 1.157020
v 0.388667 2.340400 1.021200
v 0.388667 1.659600 1.021200
v -0.655667 2.340400 1.021200
v -0.655667 1.659600 1.021200
v 0.353855 2.333333 1.000000
v 0.353855 1.666667 1.000000
v -0.620856 2.333333 1.000000
v -0.620856 1.666667 1.000000
v 0.388667 2.374440 1.123320
v 0.388667 1.625560 1.123320
v -0.655667 2.374440 1.123320
v -0.655667 1.625560 1.123320
v 0.352115 2.385673 1.157020
v 0.352115 1.614327 1.157020
v -0.619115 2.385673 1.157020
v -0.619115 1.614327 1.157020
v -0.133500 2.385673 1.157020
v -0.133500 1.614327 1.157020
v 0.388667 2.000000 1.021200
v -0.655667 2.000000 1.021200
v 0.353855 2.000000 1.000000
v -0.620856 2.000000 1.000000
v 0.388667 2.000000 1.123320
v -0.655667 2.000000 1.123320
v 0.352115 2.000000 1.157020
v -0.619115 2.000000 1.157020
v -0.133500 2.250000 1.157020
v -0.310277 2.176777 1.157020
v -0.383500 2.000000 1.157020
v -0.310277 1.823223 1.157020
v -0.133500 1.750000 1.157020
v 0.043277 1.823223 1.157020
v 0.116500 2.000000 1.157020
v 0.043277 2.176777 1.157020
v -0.133500 2.250000 1.657020
v -0.310277 2.176777 1.657020
v -0.383500 2.000000 1.657020
v -0.310277 1.823223 1.657020
v -0.133500 1.750000 1.657020
v 0.043277 1.823223 1.657020
v 0.116500 2.000000 1.657020
v 0.043277 2.176777 1.657020
v -0.633500 1.500000 2.657020
v -0.633500 2.500000 2.657020
v -0.633500 1.500000 1.657020
v -0.633500 2.500000 1.657020
v 0.366500 1.500000 2.657020
v 0.366500 2.500000 2.657020
v 0.366500 1.500000 1.657020
v 0.366500 2.500000 1.657020
v -0.133500 1.500000 1.657020
v -0.133500 2.500000 1.657020
v -0.133500 1.500000 2.657020
v -0.133500 2.500000 2.657020
v -0.633500 2.000000 2.657020
v -0.633500 2.000000 1.657020
v 0.366500 2.000000 1.657020
v 0.366500 2.000000 2.657020
v -0.133500 2.000000 2.657020
v -0.133500 2.000000 1.657020
v -0.633500 1.500000 2.157020
v -0.633500 2.500000 2.157020
v 0.366500 1.500000 2.157020
v 0.366500 2.500000 2.157020
v -0.133500 2.500000 2.157020
v -0.133500 1.500000 2.157020
v -1.533500 1.500000 2.157020
v 1.766500 2.000000 1.657020
v 1.766500 1.500000 1.657020
v 1.766500 1.500000 2.157020
v 1.766500 2.500000 2.157020
v 1.766500 2.500000 2.657020
v 1.766500 2.000000 2.657020
v 1.766500 1.500000 2.657020
v 1.766500 2.500000 1.657020
v -1.533500 1.500000 2.657020
v -1.533500 2.000000 2.657020
v -1.533500 2.500000 2.657020
v -1.533500 2.500000 2.157020
v -1.533500 2.500000 1.657020
v -1.533500 2.000000 1.657020
v -1.533500 1.500000 1.657020
v -1.533500 2.000000 2.157020
v 1.766500 2.000000 1.907020
v 1.766500 2.176777 1.980243
v 1.766500 2.250000 2.157020
v 1.766500 2.176777 2.333796
v 1.766500 2.000000 2.407020
v 1.766500 1.823223 2.333796
v 1.766500 1.750000 2.157020
v 1.766500 1.823223 1.980243
v 2.466500 2.000000 1.907020
v 2.466500 2.176777 1.980243
v 2.466500 2.250000 2.157020
v 2.466500 2.176777 2.333796
v 2.466500 2.000000 2.407020
v 2.466500 1.823223 2.333796
v 2.466500 1.750000 2.157020
v 2.466500 1.823223 1.980243
v 2.466500 2.000000 1.932020
v 2.466500 2.159099 1.997921
v 2.466500 2.225000 2.157020
v 2.466500 2.159099 2.316119
v 2.466500 2.000000 2.382020
v 2.466500 1.840901 2.316119
v 2.466500 1.775000 2.157020
v 2.466500 1.840901 1.997921
v -0.533500 2.000000 1.932020
v -0.533500 2.159099 1.997921
v -0.533500 2.225000 2.157020
v -0.533500 2.159099 2.316119
v -0.533500 2.000000 2.382020
v -0.533500 1.840901 2.316119
v -0.533500 1.775000 2.157020
v -0.533500 1.840901 1.997921
v -0.533500 2.000000 2.157019
v -0.655667 0.978800 -1.021200
v 0.388667 0.978800 -1.021200
v 0.388667 3.021200 -1.021200
v -0.655667 3.021200 -1.021200
v -0.620856 1.000000 -1.000000
v 0.353855 1.000000 -1.000000
v 0.353855 3.000000 -1.000000
v -0.620856 3.000000 -1.000000
v -0.655667 0.876680 -1.123320
v 0.388667 0.876680 -1.123320
v 0.388667 3.123320 -1.123320
v -0.655667 3.123320 -1.123320
v -0.619115 0.842980 -1.157020
v 0.352115 0.842980 -1.157020
v 0.352115 3.157020 -1.157020
v -0.619115 3.157020 -1.157020
v -0.133500 0.842980 -1.157020
v -0.133500 3.157020 -1.157020
v 0.388667 2.340400 -1.021200
v 0.388667 1.659600 -1.021200
v -0.655667 2.340400 -1.021200
v -0.655667 1.659600 -1.021200
v 0.353855 2.333333 -1.000000
v 0.353855 1.666667 -1.000000
v -0.620856 2.333333 -1.000000
v -0.620856 1.666667 -1.000000
v 0.388667 2.374440 -1.123320
v 0.388667 1.625560 -1.123320
v -0.655667 2.374440 -1.123320
v -0.655667 1.625560 -1.123320
v 0.352115 2.385673 -1.157020
v 0.352115 1.614327 -1.157020
v -0.619115 2.385673 -1.157020
v -0.619115 1.614327 -1.157020
v -0.133500 2.385673 -1.157020
v -0.133500 1.614327 -1.157020
v 0.388667 3.021200 0.000000
v -0.655667 3.021200 0.000000
v -0.620856 3.000000 0.000000
v 0.353855 3.000000 0.000000
v 0.388667 3.123320 0.000000
v -0.655667 3.123320 0.000000
v 0.352115 3.157020 0.000000
v -0.619115 3.157020 0.000000
v -0.133500 3.157020 0.000000
v -0.655667 0.978800 0.000000
v 0.388667 0.978800 0.000000
v 0.353855 1.000000 0.000000
v -0.620856 1.000000 0.000000
v -0.655667 0.876680 0.000000
v 0.388667 0.876680 0.000000
v -0.619115 0.842980 0.000000
v 0.352115 0.842980 0.000000
v -0.133500 0.842980 0.000000
v 0.388667 2.000000 -1.021200
v -0.655667 2.000000 -1.021200
v 0.353855 2.000000 -1.000000
v -0.620856 2.000000 -1.000000
v 0.388667 2.000000 -1.123320
v -0.655667 2.000000 -1.123320
v 0.352115 2.000000 -1.157020
v -0.619115 2.000000 -1.157020
v -0.133500 2.250000 -1.157020
v -0.310277 2.176777 -1.157020
v -0.383500 2.000000 -1.157020
v -0.310277 1.823223 -1.157020
v -0.133500 1.750000 -1.157020
v 0.043277 1.823223 -1.157020
v 0.116500 2.000000 -1.157020
v 0.043277 2.176777 -1.157020
v -0.133500 2.250000 -1.657020
v -0.310277 2.176777 -1.657020
v -0.383500 2.000000 -1.657020
v -0.310277 1.823223 -1.657020
v -0.133500 1.750000 -1.657020
v 0.043277 1.823223 -1.657020
v 0.116500 2.000000 -1.657020
v 0.043277 2.176777 -1.657020
v -0.633500 1.500000 -2.657020
v -0.633500 2.500000 -2.657020
v -0.633500 1.500000 -1.657020
v -0.633500 2.500000 -1.657020
v 0.366500 1.500000 -2.657020
v 0.366500 2.500000 -2.657020
v 0.366500 1.500000 -1.657020
v 0.366500 2.500000 -1.657020
v -0.133500 1.500000 -1.657020
v -0.133500 2.500000 -1.657020
v -0.133500 1.500000 -2.657020
v -0.133500 2.500000 -2.657020
v -0.633500 2.000000 -2.657020
v -0.633500 2.000000 -1.657020
v 0.366500 2.000000 -1.657020
v 0.366500 2.000000 -2.657020
v -0.133500 2.000000 -2.657020
v -0.133500 2.000000 -1.657020
v -0.633500 1.500000 -2.157020
v -0.633500 2.500000 -2.157020
v 0.366500 1.500000 -2.157020
v 0.366500 2.500000 -2.157020
v -0.133500 2.500000 -2.157020
v -0.133500 1.500000 -2.157020
v -1.533500 1.500000 -2.157020
v 1.766500 2.000000 -1.657020
v 1.766500 1.500000 -1.657020
v 1.766500 1.500000 -2.157020
v 1.766500 2.500000 -2.157020
v 1.766500 2.500000 -2.657020
v 1.766500 2.000000 -2.657020
v 1.766500 1.500000 -2.657020
v 1.766500 2.500000 -1.657020
v -1.533500 1.500000 -2.657020
v -1.533500 2.000000 -2.657020
v -1.533500 2.500000 -2.657020
v -1.533500 2.500000 -2.157020
v -1.533500 2.500000 -1.657020
v -1.533500 2.000000 -1.657020
v -1.533500 1.500000 -1.657020
v -1.533500 2.000000 -2.157020
v 1.766500 2.000000 -1.907020
v 1.766500 2.176777 -1.980243
v 1.766500 2.250000 -2.157020
v 1.766500 2.176777 -2.333796
v 1.766500 2.000000 -2.407020
v 1.766500 1.823223 -2.333796
v 1.766500 1.750000 -2.157020
v 1.766500 1.823223 -1.980243
v 2.466500 2.000000 -1.907020
v 2.466500 2.176777 -1.980243
v 2.466500 2.250000 -2.157020
v 2.466500 2.176777 -2.333796
v 2.466500 2.000000 -2.407020
v 2.466500 1.823223 -2.333796
v 2.466500 1.750000 -2.157020
v 2.466500 1.823223 -1.980243
v 2.466500 2.000000 -1.932020
v 2.466500 2.159099 -1.997921
v 2.466500 2.225000 -2.157020
v 2.466500 2.159099 -2.316119
v 2.466500 2.000000 -2.382020
v 2.466500 1.840901 -2.316119
v 2.466500 1.775000 -2.157020
v 2.466500 1.840901 -1.997921
v -0.533500 2.000000 -1.932020
v -0.533500 2.159099 -1.997921
v -0.533500 2.225000 -2.157020
v -0.533500 2.159099 -2.316119
v -0.533500 2.000000 -2.382020
v -0.533500 1.840901 -2.316119
v -0.533500 1.775000 -2.157020
v -0.533500 1.840901 -1.997921
v -0.533500 2.000000 -2.157019
vn 0.5201 -0.8541 0.0000
vn -0.5201 0.8541 0.0000
vn -0.5201 0.0000 -0.8541
vn 0.5201 0.0000 -0.8541
vn 0.0000 0.0000 -1.0000
vn 0.5201 0.8541 0.0000
vn 0.0000 1.0000 0.0000
vn -0.5201 -0.8541 0.0000
vn 0.0000 -1.0000 0.0000
vn 1.0000 0.0000 0.0000
vn -1.0000 0.0000 0.0000
vn -0.6778 0.0000 0.7352
vn -0.6778 -0.7352 0.0000
vn 0.6778 0.7352 0.0000
vn 0.6778 0.0000 0.7352
vn 0.0000 0.0000 1.0000
vn -0.6778 0.7352 0.0000
vn 0.6778 -0.7352 0.0000
vn 0.9239 -0.3827 0.0000
vn -0.3827 -0.9239 0.0000
vn -0.9239 0.3827 0.0000
vn 0.9239 0.3827 0.0000
vn 0.3827 -0.9239 0.0000
vn -0.9239 -0.3827 0.0000
vn -0.3827 0.9239 0.0000
vn 0.3827 0.9239 0.0000
vn 0.0000 0.3827 0.9239
vn 0.0000 0.9239 -0.3827
vn 0.0000 -0.9239 -0.3827
vn 0.0000 -0.3827 0.9239
vn 0.0000 0.9239 0.3827
vn 0.0000 0.3827 -0.9239
vn 0.0000 -0.3827 -0.9239
vn 0.0000 -0.9239 0.3827
vn -0.5201 0.0000 0.8541
vn 0.5201 0.0000 0.8541
vn -0.6778 0.0000 -0.7352
vn 0.6778 0.0000 -0.7352
usemtl Leather
s off
f 174//1 171//1 3//1 7//1
f 183//2 180//2 1//2 5//2
f 25//3 21//3 4//3 8//3
f 19//4 23//4 7//4 3//4
f 23//5 25//5 8//5 7//5
f 181//6 182//6 6//6 2//6
f 182//7 183//7 5//7 6//7
f 172//8 173//8 8//8 4//8
f 173//9 174//9 7//9 8//9
f 20//10 28//10 10//10 2//10
f 21//11 29//11 12//11 4//11
f 180//11 184//11 9//11 1//11
f 171//10 175//10 11//10 3//10
f 29//12 33//12 16//12 12//12
f 184//13 186//13 13//13 9//13
f 175//14 177//14 15//14 11//14
f 28//15 32//15 14//15 10//15
f 177//7 179//7 18//7 15//7
f 32//16 36//16 17//16 14//16
f 33//16 35//16 18//16 16//16
f 186//9 188//9 17//9 13//9
f 13//16 17//16 36//16 34//16
f 15//16 18//16 35//16 31//16
f 11//15 15//15 31//15 27//15
f 41//15 43//15 32//15 28//15
f 9//12 13//12 34//12 30//12
f 42//12 44//12 33//12 29//12
f 1//11 9//11 30//11 22//11
f 38//11 42//11 29//11 21//11
f 3//10 11//10 27//10 19//10
f 37//10 41//10 28//10 20//10
f 6//5 5//5 26//5 24//5
f 39//5 40//5 25//5 23//5
f 2//4 6//4 24//4 20//4
f 37//4 39//4 23//4 19//4
f 5//3 1//3 22//3 26//3
f 40//3 38//3 21//3 25//3
f 16//7 18//7 179//7 178//7
f 12//17 16//17 178//17 176//17
f 4//11 12//11 176//11 172//11
f 14//9 17//9 188//9 187//9
f 10//18 14//18 187//18 185//18
f 2//10 10//10 185//10 181//10
f 26//3 22//3 38//3 40//3
f 20//4 24//4 39//4 37//4
f 24//5 26//5 40//5 39//5
f 19//10 27//10 41//10 37//10
f 22//11 30//11 42//11 38//11
f 30//12 34//12 44//12 42//12
f 27//15 31//15 43//15 41//15
f 31//16 35//16 45//16 52//16
f 43//16 31//16 52//16 51//16
f 32//16 43//16 51//16 50//16
f 36//16 32//16 50//16 49//16
f 34//16 36//16 49//16 48//16
f 44//16 34//16 48//16 47//16
f 33//16 44//16 47//16 46//16
f 35//16 33//16 46//16 45//16
f 50//19 51//19 59//19 58//19
f 48//20 49//20 57//20 56//20
f 46//21 47//21 55//21 54//21
f 51//22 52//22 60//22 59//22
f 49//23 50//23 58//23 57//23
f 47//24 48//24 56//24 55//24
f 45//25 46//25 54//25 53//25
f 52//26 45//26 53//26 60//26
f 61//16 73//16 95//16 94//16
f 78//5 70//5 68//5 75//5
f 81//9 67//9 87//9 88//9
f 77//16 72//16 62//16 73//16
f 84//9 81//9 65//9 71//9
f 83//7 80//7 62//7 72//7
f 82//7 83//7 72//7 66//7
f 79//9 84//9 71//9 61//9
f 76//16 66//16 72//16 77//16
f 74//5 64//5 70//5 78//5
f 63//5 74//5 78//5 69//5
f 65//16 76//16 77//16 71//16
f 71//16 77//16 73//16 61//16
f 76//16 65//16 92//16 91//16
f 69//5 78//5 75//5 67//5
f 79//9 61//9 94//9 85//9
f 62//7 80//7 97//7 96//7
f 75//5 68//5 93//5 86//5
f 63//9 69//9 84//9 79//9
f 68//7 70//7 83//7 82//7
f 70//7 64//7 80//7 83//7
f 69//9 67//9 81//9 84//9
f 68//7 82//7 89//7 93//7
f 80//7 64//7 98//7 97//7
f 65//9 81//9 88//9 92//9
f 66//16 76//16 91//16 90//16
f 82//7 66//7 90//7 89//7
f 67//5 75//5 86//5 87//5
f 101//11 97//11 98//11 99//11
f 85//11 101//11 99//11 100//11
f 94//11 95//11 101//11 85//11
f 95//11 96//11 97//11 101//11
f 74//5 63//5 100//5 99//5
f 73//16 62//16 96//16 95//16
f 63//9 79//9 85//9 100//9
f 64//5 74//5 99//5 98//5
f 106//27 114//27 113//27 105//27
f 104//28 112//28 111//28 103//28
f 109//29 117//29 116//29 108//29
f 107//30 115//30 114//30 106//30
f 105//31 113//31 112//31 104//31
f 103//32 111//32 110//32 102//32
f 102//33 110//33 117//33 109//33
f 108//34 116//34 115//34 107//34
f 87//10 109//10 108//10 88//10
f 88//10 108//10 107//10 92//10
f 92//10 107//10 106//10 91//10
f 91//10 106//10 105//10 90//10
f 90//10 105//10 104//10 89//10
f 89//10 104//10 103//10 93//10
f 93//10 103//10 102//10 86//10
f 86//10 102//10 109//10 87//10
f 116//10 117//10 125//10 124//10
f 114//10 115//10 123//10 122//10
f 112//10 113//10 121//10 120//10
f 110//10 111//10 119//10 118//10
f 117//10 110//10 118//10 125//10
f 115//10 116//10 124//10 123//10
f 113//10 114//10 122//10 121//10
f 111//10 112//10 120//10 119//10
f 122//32 123//32 131//32 130//32
f 120//29 121//29 129//29 128//29
f 118//30 119//30 127//30 126//30
f 125//27 118//27 126//27 133//27
f 123//28 124//28 132//28 131//28
f 121//33 122//33 130//33 129//33
f 119//34 120//34 128//34 127//34
f 124//31 125//31 133//31 132//31
f 132//10 133//10 134//10
f 130//10 131//10 134//10
f 128//10 129//10 134//10
f 126//10 127//10 134//10
f 133//10 126//10 134//10
f 131//10 132//10 134//10
f 129//10 130//10 134//10
f 127//10 128//10 134//10
f 174//1 141//1 137//1 171//1
f 183//2 139//2 135//2 180//2
f 159//35 142//35 138//35 155//35
f 153//36 137//36 141//36 157//36
f 157//16 141//16 142//16 159//16
f 181//6 136//6 140//6 182//6
f 182//7 140//7 139//7 183//7
f 172//8 138//8 142//8 173//8
f 173//9 142//9 141//9 174//9
f 154//10 136//10 144//10 162//10
f 155//11 138//11 146//11 163//11
f 180//11 135//11 143//11 184//11
f 171//10 137//10 145//10 175//10
f 163//37 146//37 150//37 167//37
f 184//13 143//13 147//13 186//13
f 175//14 145//14 149//14 177//14
f 162//38 144//38 148//38 166//38
f 177//7 149//7 152//7 179//7
f 166//5 148//5 151//5 170//5
f 167//5 150//5 152//5 169//5
f 186//9 147//9 151//9 188//9
f 147//5 168//5 170//5 151//5
f 149//5 165//5 169//5 152//5
f 145//38 161//38 165//38 149//38
f 193//38 162//38 166//38 195//38
f 143//37 164//37 168//37 147//37
f 194//37 163//37 167//37 196//37
f 135//11 156//11 164//11 143//11
f 190//11 155//11 163//11 194//11
f 137//10 153//10 161//10 145//10
f 189//10 154//10 162//10 193//10
f 140//16 158//16 160//16 139//16
f 191//16 157//16 159//16 192//16
f 136//36 154//36 158//36 140//36
f 189//36 153//36 157//36 191//36
f 139//35 160//35 156//35 135//35
f 192//35 159//35 155//35 190//35
f 150//7 178//7 179//7 152//7
f 146//17 176//17 178//17 150//17
f 138//11 172//11 176//11 146//11
f 148//9 187//9 188//9 151//9
f 144//18 185//18 187//18 148//18
f 136//10 181//10 185//10 144//10
f 160//35 192//35 190//35 156//35
f 154//36 189//36 191//36 158//36
f 158//16 191//16 192//16 160//16
f 153//10 189//10 193//10 161//10
f 156//11 190//11 194//11 164//11
f 164//37 194//37 196//37 168//37
f 161//38 193//38 195//38 165//38
f 165//5 204//5 197//5 169//5
f 195//5 203//5 204//5 165//5
f 166//5 202//5 203//5 195//5
f 170//5 201//5 202//5 166//5
f 168//5 200//5 201//5 170//5
f 196//5 199//5 200//5 168//5
f 167//5 198//5 199//5 196//5
f 169//5 197//5 198//5 167//5
f 202//19 210//19 211//19 203//19
f 200//20 208//20 209//20 201//20
f 198//21 206//21 207//21 199//21
f 203//22 211//22 212//22 204//22
f 201//23 209//23 210//23 202//23
f 199//24 207//24 208//24 200//24
f 197//25 205//25 206//25 198//25
f 204//26 212//26 205//26 197//26
f 213//5 246//5 247//5 225//5
f 230//16 227//16 220//16 222//16
f 233//9 240//9 239//9 219//9
f 229//5 225//5 214//5 224//5
f 236//9 223//9 217//9 233//9
f 235//7 224//7 214//7 232//7
f 234//7 218//7 224//7 235//7
f 231//9 213//9 223//9 236//9
f 228//5 229//5 224//5 218//5
f 226//16 230//16 222//16 216//16
f 215//16 221//16 230//16 226//16
f 217//5 223//5 229//5 228//5
f 223//5 213//5 225//5 229//5
f 228//5 243//5 244//5 217//5
f 221//16 219//16 227//16 230//16
f 231//9 237//9 246//9 213//9
f 214//7 248//7 249//7 232//7
f 227//16 238//16 245//16 220//16
f 215//9 231//9 236//9 221//9
f 220//7 234//7 235//7 222//7
f 222//7 235//7 232//7 216//7
f 221//9 236//9 233//9 219//9
f 220//7 245//7 241//7 234//7
f 232//7 249//7 250//7 216//7
f 217//9 244//9 240//9 233//9
f 218//5 242//5 243//5 228//5
f 234//7 241//7 242//7 218//7
f 219//16 239//16 238//16 227//16
f 253//11 251//11 250//11 249//11
f 237//11 252//11 251//11 253//11
f 246//11 237//11 253//11 247//11
f 247//11 253//11 249//11 248//11
f 226//16 251//16 252//16 215//16
f 225//5 247//5 248//5 214//5
f 215//9 252//9 237//9 231//9
f 216//16 250//16 251//16 226//16
f 258//32 257//32 265//32 266//32
f 256//31 255//31 263//31 264//31
f 261//34 260//34 268//34 269//34
f 259//33 258//33 266//33 267//33
f 257//28 256//28 264//28 265//28
f 255//27 254//27 262//27 263//27
f 254//30 261//30 269//30 262//30
f 260//29 259//29 267//29 268//29
f 239//10 240//10 260//10 261//10
f 240//10 244//10 259//10 260//10
f 244//10 243//10 258//10 259//10
f 243//10 242//10 257//10 258//10
f 242//10 241//10 256//10 257//10
f 241//10 245//10 255//10 256//10
f 245//10 238//10 254//10 255//10
f 238//10 239//10 261//10 254//10
f 268//10 276//10 277//10 269//10
f 266//10 274//10 275//10 267//10
f 264//10 272//10 273//10 265//10
f 262//10 270//10 271//10 263//10
f 269//10 277//10 270//10 262//10
f 267//10 275//10 276//10 268//10
f 265//10 273//10 274//10 266//10
f 263//10 271//10 272//10 264//10
f 274//27 282//27 283//27 275//27
f 272//34 280//34 281//34 273//34
f 270//33 278//33 279//33 271//33
f 277//32 285//32 278//32 270//32
f 275//31 283//31 284//31 276//31
f 273//30 281//30 282//30 274//30
f 271//29 279//29 280//29 272//29
f 276//28 284//28 285//28 277//28
f 284//10 286//10 285//10
f 282//10 286//10 283//10
f 280//10 286//10 281//10
f 278//10 286//10 279//10
f 285//10 286//10 278//10
f 283//10 286//10 284//10
f 281//10 286//10 282//10
f 279//10 286//10 280//10
