# Blender v2.78 (sub 0) OBJ File: 'tree.blend'
# www.blender.org
mtllib tree.mtl
o Cylinder
v 0.000000 0.000000 -0.500000
v 0.000000 3.000000 -0.500000
v 0.191342 0.000000 -0.461940
v 0.191342 3.000000 -0.461940
v 0.353553 0.000000 -0.353553
v 0.353553 3.000000 -0.353553
v 0.461940 0.000000 -0.191342
v 0.461940 3.000000 -0.191342
v 0.500000 0.000000 0.000000
v 0.500000 3.000000 0.000000
v 0.461940 0.000000 0.191342
v 0.461940 3.000000 0.191342
v 0.353553 0.000000 0.353553
v 0.353553 3.000000 0.353553
v 0.191342 0.000000 0.461940
v 0.191342 3.000000 0.461940
v 0.000000 0.000000 0.500000
v 0.000000 3.000000 0.500000
v -0.191342 0.000000 0.461940
v -0.191342 3.000000 0.461940
v -0.353553 0.000000 0.353554
v -0.353553 3.000000 0.353554
v -0.461940 0.000000 0.191342
v -0.461940 3.000000 0.191342
v -0.500000 0.000000 0.000000
v -0.500000 3.000000 0.000000
v -0.461940 0.000000 -0.191342
v -0.461940 3.000000 -0.191342
v -0.353553 0.000000 -0.353553
v -0.353553 3.000000 -0.353553
v -0.191341 0.000000 -0.461940
v -0.191341 3.000000 -0.461940
v 0.000000 3.000000 -1.000000
v 0.382684 3.000000 -0.923880
v 0.707107 3.000000 -0.707107
v 0.923880 3.000000 -0.382683
v 1.000000 3.000000 0.000000
v 0.000000 7.000000 0.000000
v 0.923880 3.000000 0.382684
v 0.707107 3.000000 0.707107
v 0.382684 3.000000 0.923880
v 0.000000 3.000000 1.000000
v -0.382683 3.000000 0.923880
v -0.707106 3.000000 0.707107
v -0.923879 3.000000 0.382684
v -1.000000 3.000000 0.000000
v -0.923879 3.000000 -0.382684
v -0.707106 3.000000 -0.707107
v -0.382683 3.000000 -0.923880
vn 0.1951 0.0000 -0.9808
vn 0.5556 0.0000 -0.8315
vn 0.8315 0.0000 -0.5556
vn 0.9808 0.0000 -0.1951
vn 0.9808 0.0000 0.1951
vn 0.8315 0.0000 0.5556
vn 0.5556 0.0000 0.8315
vn 0.1951 0.0000 0.9808
vn -0.1951 0.0000 0.9808
vn -0.5556 0.0000 0.8315
vn -0.8315 0.0000 0.5556
vn -0.9808 0.0000 0.1951
vn -0.9808 0.0000 -0.1951
vn -0.8315 0.0000 -0.5556
vn -0.5556 0.0000 -0.8315
vn -0.1951 0.0000 -0.9808
vn 0.0000 -1.0000 0.0000
vn 0.1895 0.2381 -0.9526
vn 0.5396 0.2381 -0.8075
vn 0.8075 0.2381 -0.5396
vn 0.9526 0.2381 -0.1895
vn 0.9526 0.2381 0.1895
vn 0.8075 0.2381 0.5396
vn 0.5396 0.2381 0.8075
vn 0.1895 0.2381 0.9526
vn -0.1895 0.2381 0.9526
vn -0.5396 0.2381 0.8075
vn -0.8075 0.2381 0.5396
vn -0.9526 0.2381 0.1895
vn -0.9526 0.2381 -0.1895
vn -0.8075 0.2381 -0.5396
vn -0.5396 0.2381 -0.8075
vn -0.1895 0.2381 -0.9526
usemtl Wood
s off
f 1//1 2//1 4//1 3//1
f 3//2 4//2 6//2 5//2
f 5//3 6//3 8//3 7//3
f 7//4 8//4 10//4 9//4
f 9//5 10//5 12//5 11//5
f 11//6 12//6 14//6 13//6
f 13//7 14//7 16//7 15//7
f 15//8 16//8 18//8 17//8
f 17//9 18//9 20//9 19//9
f 19//10 20//10 22//10 21//10
f 21//11 22//11 24//11 23//11
f 23//12 24//12 26//12 25//12
f 25//13 26//13 28//13 27//13
f 27//14 28//14 30//14 29//14
f 29//15 30//15 32//15 31//15
f 31//16 32//16 2//16 1//16
f 1//17 3//17 5//17 7//17 9//17 11//17 13//17 15//17 17//17 19//17 21//17 23//17 25//17 27//17 29//17 31//17
usemtl Leaves
f 4//17 34//17 35//17 6//17
f 33//18 38//18 34//18
f 34//19 38//19 35//19
f 2//17 33//17 34//17 4//17
f 35//20 38//20 36//20
f 32//17 49//17 33//17 2//17
f 36//21 38//21 37//21
f 30//17 48//17 49//17 32//17
f 37//22 38//22 39//22
f 28//17 47//17 48//17 30//17
f 39//23 38//23 40//23
f 26//17 46//17 47//17 28//17
f 40//24 38//24 41//24
f 24//17 45//17 46//17 26//17
f 41//25 38//25 42//25
f 22//17 44//17 45//17 24//17
f 42//26 38//26 43//26
f 20//17 43//17 44//17 22//17
f 43//27 38//27 44//27
f 18//17 42//17 43//17 20//17
f 44//28 38//28 45//28
f 16//17 41//17 42//17 18//17
f 45//29 38//29 46//29
f 14//17 40//17 41//17 16//17
f 46//30 38//30 47//30
f 12//17 39//17 40//17 14//17
f 47//31 38//31 48//31
f 10//17 37//17 39//17 12//17
f 8//17 36//17 37//17 10//17
f 48//32 38//32 49//32
f 49//33 38//33 33//33
f 6//17 35//17 36//17 8//17
