# Blender v2.78 (sub 0) OBJ File: 'Arena.blend'
# www.blender.org
mtllib Arena.mtl
o Plane.001
v -4.000000 5.000000 4.000000
v 4.000000 5.000000 4.000000
v -4.000000 5.000000 -4.000000
v 4.000000 5.000000 -4.000000
v -4.000000 5.100000 4.000000
v 4.000000 5.100000 4.000000
v -4.000000 5.100000 -4.000000
v 4.000000 5.100000 -4.000000
vn 0.0000 -1.0000 0.0000
vn 0.0000 1.0000 0.0000
vn -1.0000 0.0000 0.0000
vn 0.0000 0.0000 1.0000
vn 1.0000 0.0000 0.0000
vn 0.0000 0.0000 -1.0000
usemtl None
s off
f 1//1 3//1 4//1 2//1
f 5//2 6//2 8//2 7//2
f 3//3 1//3 5//3 7//3
f 1//4 2//4 6//4 5//4
f 2//5 4//5 8//5 6//5
f 4//6 3//6 7//6 8//6
o Plane
v -5.000000 0.000000 5.000000
v -5.000000 2.000000 5.000000
v -5.000000 0.000000 -5.000000
v -5.000000 2.000000 -5.000000
v 5.000000 0.000000 5.000000
v 5.000000 2.000000 5.000000
v 5.000000 0.000000 -5.000000
v 5.000000 2.000000 -5.000000
v -5.057735 -0.057735 5.057735
v -5.070708 2.000000 5.070708
v -5.057735 -0.057735 -5.057735
v -5.070708 2.000000 -5.070708
v 5.057735 -0.057735 5.057735
v 5.070708 2.000000 5.070708
v 5.057735 -0.057735 -5.057735
v 5.070708 2.000000 -5.070708
vn 1.0000 0.0000 0.0000
vn 0.0000 0.0000 1.0000
vn -1.0000 0.0000 0.0000
vn 0.0000 0.0000 -1.0000
vn 0.0000 1.0000 0.0000
vn -1.0000 -0.0063 0.0000
vn 0.0000 -0.0063 -1.0000
vn 1.0000 -0.0063 0.0000
vn 0.0000 -0.0063 1.0000
vn 0.0000 -1.0000 0.0000
usemtl None
s off
f 9//7 11//7 12//7 10//7
f 11//8 15//8 16//8 12//8
f 15//9 13//9 14//9 16//9
f 13//10 9//10 10//10 14//10
f 11//11 9//11 13//11 15//11
f 17//12 18//12 20//12 19//12
f 19//13 20//13 24//13 23//13
f 23//14 24//14 22//14 21//14
f 21//15 22//15 18//15 17//15
f 19//16 23//16 21//16 17//16
f 10//11 12//11 20//11 18//11
f 12//11 16//11 24//11 20//11
f 16//11 14//11 22//11 24//11
f 14//11 10//11 18//11 22//11
