# Blender v2.78 (sub 0) OBJ File: 'robot_char.blend'
# www.blender.org
mtllib robot_char.mtl
o Cube_Cube.001
v 1.000000 0.168332 0.225710
v 0.349191 1.000000 0.349191
v 1.000000 0.168332 -0.225710
v 0.349191 1.000000 -0.349191
v 1.000000 0.619752 -0.225710
v 1.000000 0.619752 0.225710
v 0.349191 1.552802 -0.349191
v 0.349191 1.552802 0.349191
v 0.669557 1.552802 -0.669557
v 0.669557 1.552802 0.669557
v 0.669557 2.754083 -0.669557
v 0.669557 2.754083 0.669557
v 1.000000 1.000000 -1.000000
v 1.000000 -1.000000 -1.000000
v 1.000000 -1.000000 1.000000
v 1.000000 1.000000 1.000000
v 1.494222 0.619752 -0.225710
v 1.494222 0.168332 -0.225710
v 1.494222 0.168332 0.225710
v 1.494222 0.619752 0.225710
v 1.973691 0.619752 -0.225710
v 1.973691 0.168332 -0.225710
v 1.973691 0.168332 0.225710
v 1.973691 0.619752 0.225710
v 1.494222 0.619752 1.767387
v 1.494222 0.168332 1.767387
v 1.973691 0.619752 1.767387
v 1.973691 0.168332 1.767387
v -1.000000 0.168332 0.225710
v -0.349191 1.000000 0.349191
v -1.000000 0.168332 -0.225710
v -0.349191 1.000000 -0.349191
v -1.000000 0.619752 -0.225710
v -1.000000 0.619752 0.225710
v -0.349191 1.552802 -0.349191
v -0.349191 1.552802 0.349191
v -0.669557 1.552802 -0.669557
v -0.669557 1.552802 0.669557
v -0.669557 2.754083 -0.669557
v -0.669557 2.754083 0.669557
v 0.000000 -1.000000 -1.000000
v 0.000000 1.000000 -1.000000
v 0.000000 -1.000000 1.000000
v 0.000000 1.000000 1.000000
v 0.000000 1.000000 -0.349191
v 0.000000 1.000000 0.349191
v 0.000000 1.552802 -0.349191
v 0.000000 1.552802 0.349191
v 0.000000 1.552802 -0.669557
v 0.000000 1.552802 0.669557
v 0.000000 2.754083 -0.669557
v 0.000000 2.754083 0.669557
v -1.000000 1.000000 -1.000000
v -1.000000 -1.000000 -1.000000
v -1.000000 -1.000000 1.000000
v -1.000000 1.000000 1.000000
v -1.494222 0.619752 -0.225710
v -1.494222 0.168332 -0.225710
v -1.494222 0.168332 0.225710
v -1.494222 0.619752 0.225710
v -1.973691 0.619752 -0.225710
v -1.973691 0.168332 -0.225710
v -1.973691 0.168332 0.225710
v -1.973691 0.619752 0.225710
v -1.494222 0.619752 1.767387
v -1.494222 0.168332 1.767387
v -1.973691 0.619752 1.767387
v -1.973691 0.168332 1.767387
vn 0.0000 0.0000 -1.0000
vn 0.0000 -1.0000 0.0000
vn 0.0000 1.0000 0.0000
vn 0.0000 0.0000 1.0000
vn 1.0000 0.0000 0.0000
vn -1.0000 0.0000 0.0000
usemtl None
s off
f 41//1 42//1 13//1 14//1
f 3//1 5//1 17//1 18//1
f 41//2 14//2 15//2 43//2
f 45//3 4//3 13//3 42//3
f 4//3 2//3 16//3 13//3
f 48//2 8//2 10//2 50//2
f 46//4 2//4 8//4 48//4
f 2//5 4//5 7//5 8//5
f 10//5 9//5 11//5 12//5
f 8//2 7//2 9//2 10//2
f 50//4 10//4 12//4 52//4
f 9//1 49//1 51//1 11//1
f 11//3 51//3 52//3 12//3
f 7//2 47//2 49//2 9//2
f 4//1 45//1 47//1 7//1
f 2//3 46//3 44//3 16//3
f 15//4 16//4 44//4 43//4
f 5//5 3//5 14//5 13//5
f 3//5 1//5 15//5 14//5
f 6//5 5//5 13//5 16//5
f 1//5 6//5 16//5 15//5
f 20//6 19//6 26//6 25//6
f 6//4 1//4 19//4 20//4
f 1//2 3//2 18//2 19//2
f 5//3 6//3 20//3 17//3
f 22//5 21//5 24//5 23//5
f 19//2 18//2 22//2 23//2
f 17//3 20//3 24//3 21//3
f 18//1 17//1 21//1 22//1
f 25//4 26//4 28//4 27//4
f 19//2 23//2 28//2 26//2
f 24//3 20//3 25//3 27//3
f 23//5 24//5 27//5 28//5
f 41//1 54//1 53//1 42//1
f 31//1 58//1 57//1 33//1
f 41//2 43//2 55//2 54//2
f 45//3 42//3 53//3 32//3
f 32//3 53//3 56//3 30//3
f 48//2 50//2 38//2 36//2
f 46//4 48//4 36//4 30//4
f 30//6 36//6 35//6 32//6
f 38//6 40//6 39//6 37//6
f 36//2 38//2 37//2 35//2
f 50//4 52//4 40//4 38//4
f 37//1 39//1 51//1 49//1
f 39//3 40//3 52//3 51//3
f 35//2 37//2 49//2 47//2
f 32//1 35//1 47//1 45//1
f 30//3 56//3 44//3 46//3
f 55//4 43//4 44//4 56//4
f 33//6 53//6 54//6 31//6
f 31//6 54//6 55//6 29//6
f 34//6 56//6 53//6 33//6
f 29//6 55//6 56//6 34//6
f 60//5 65//5 66//5 59//5
f 34//4 60//4 59//4 29//4
f 29//2 59//2 58//2 31//2
f 33//3 57//3 60//3 34//3
f 62//6 63//6 64//6 61//6
f 59//2 63//2 62//2 58//2
f 57//3 61//3 64//3 60//3
f 58//1 62//1 61//1 57//1
f 65//4 67//4 68//4 66//4
f 59//2 66//2 68//2 63//2
f 64//3 67//3 65//3 60//3
f 63//6 68//6 67//6 64//6
